<svg xmlns="http://www.w3.org/2000/svg" xmlns:xlink="http://www.w3.org/1999/xlink" width="228" zoomAndPan="magnify" viewBox="0 0 171 71.249999" height="95" preserveAspectRatio="xMidYMid meet" version="1.2"><defs><clipPath id="ecb32a4596"><path d="M 0.851562 0.851562 L 168.164062 0.851562 L 168.164062 63.65625 L 0.851562 63.65625 Z M 0.851562 0.851562 "/></clipPath><clipPath id="c14054c5f6"><path d="M 168.148438 32.253906 C 168.148438 49.597656 154.089844 63.65625 136.746094 63.65625 L 32.253906 63.65625 C 14.910156 63.65625 0.851562 49.597656 0.851562 32.253906 C 0.851562 14.910156 14.910156 0.851562 32.253906 0.851562 L 136.746094 0.851562 C 154.089844 0.851562 168.148438 14.910156 168.148438 32.253906 Z M 168.148438 32.253906 "/></clipPath><clipPath id="03c04ac69a"><path d="M 0.851562 0.851562 L 168.164062 0.851562 L 168.164062 63.65625 L 0.851562 63.65625 Z M 0.851562 0.851562 "/></clipPath><clipPath id="b3747f9b8b"><path d="M 168.148438 32.253906 C 168.148438 49.597656 154.089844 63.65625 136.746094 63.65625 L 32.253906 63.65625 C 14.910156 63.65625 0.851562 49.597656 0.851562 32.253906 C 0.851562 14.910156 14.910156 0.851562 32.253906 0.851562 L 136.746094 0.851562 C 154.089844 0.851562 168.148438 14.910156 168.148438 32.253906 Z M 168.148438 32.253906 "/></clipPath><clipPath id="23d29cbcf1"><rect x="0" width="169" y="0" height="64"/></clipPath><clipPath id="7d0a660282"><path d="M 22.96875 13.398438 L 60.542969 13.398438 L 60.542969 50.972656 L 22.96875 50.972656 Z M 22.96875 13.398438 "/></clipPath><clipPath id="d5ae0161c0"><path d="M 1.078125 0.507812 L 38.542969 0.507812 L 38.542969 37.972656 L 1.078125 37.972656 Z M 1.078125 0.507812 "/></clipPath><clipPath id="07c2ea1052"><rect x="0" width="39" y="0" height="38"/></clipPath><clipPath id="5a1df9f681"><path d="M 47.226562 37.65625 L 61 37.65625 L 61 51.96875 L 47.226562 51.96875 Z M 47.226562 37.65625 "/></clipPath><clipPath id="b3ec2d5047"><path d="M 49 8 L 72 8 L 72 37.914062 L 49 37.914062 Z M 49 8 "/></clipPath><clipPath id="61656e9d21"><rect x="0" width="73" y="0" height="38"/></clipPath><clipPath id="f750149da6"><rect x="0" width="169" y="0" height="64"/></clipPath></defs><g id="9058f97cba"><g transform="matrix(1,0,0,1,1,3)"><g clip-path="url(#f750149da6)"><g clip-rule="nonzero" clip-path="url(#ecb32a4596)"><g clip-rule="nonzero" clip-path="url(#c14054c5f6)"><g transform="matrix(1,0,0,1,0.000000000000000222,0.000000000000003109)"><g id="a20b33b4b6" clip-path="url(#23d29cbcf1)"><g clip-rule="nonzero" clip-path="url(#03c04ac69a)"><g clip-rule="nonzero" clip-path="url(#b3747f9b8b)"><path style=" stroke:none;fill-rule:nonzero;fill:#e2ef34;fill-opacity:1;" d="M 0.851562 0.851562 L 168.164062 0.851562 L 168.164062 63.65625 L 0.851562 63.65625 Z M 0.851562 0.851562 "/></g></g></g></g></g></g><g clip-rule="nonzero" clip-path="url(#7d0a660282)"><g transform="matrix(1,0,0,1,22,13)"><g id="3d31be637f" clip-path="url(#07c2ea1052)"><g clip-rule="nonzero" clip-path="url(#d5ae0161c0)"><path style=" stroke:none;fill-rule:nonzero;fill:#000000;fill-opacity:1;" d="M 0.96875 38.085938 C 21.78125 38.085938 38.65625 21.210938 38.65625 0.398438 L 0.96875 0.398438 Z M 0.96875 38.085938 "/></g></g></g></g><g clip-rule="nonzero" clip-path="url(#5a1df9f681)"><path style=" stroke:none;fill-rule:nonzero;fill:#000000;fill-opacity:1;" d="M 60.675781 37.65625 C 53.246094 37.65625 47.226562 43.675781 47.226562 51.101562 L 60.675781 51.101562 Z M 60.675781 37.65625 "/></g><g transform="matrix(1,0,0,1,73,13)"><g id="add1dccc7d" clip-path="url(#61656e9d21)"><g style="fill:#000000;fill-opacity:1;"><g transform="translate(0.519695, 30.321958)"><path style="stroke:none" d="M 7.90625 0 L 2.921875 0 L 2.921875 -29 L 7.90625 -29 L 7.90625 -20.375 L 7.78125 -18 C 8.445312 -19.15625 9.394531 -20.078125 10.625 -20.765625 C 11.851562 -21.460938 13.273438 -21.8125 14.890625 -21.8125 C 17.734375 -21.8125 19.863281 -20.90625 21.28125 -19.09375 C 22.695312 -17.289062 23.40625 -14.726562 23.40625 -11.40625 L 23.40625 0 L 18.421875 0 L 18.421875 -11.3125 C 18.421875 -13.40625 17.976562 -14.910156 17.09375 -15.828125 C 16.21875 -16.753906 15.023438 -17.21875 13.515625 -17.21875 C 12.785156 -17.21875 12.082031 -17.0625 11.40625 -16.75 C 10.738281 -16.445312 10.140625 -16.015625 9.609375 -15.453125 C 9.078125 -14.890625 8.660156 -14.210938 8.359375 -13.421875 C 8.054688 -12.628906 7.90625 -11.757812 7.90625 -10.8125 Z M 7.90625 0 "/></g></g><g style="fill:#000000;fill-opacity:1;"><g transform="translate(23.889273, 30.321958)"><path style="stroke:none" d="M 12.546875 0.640625 C 10.941406 0.640625 9.457031 0.351562 8.09375 -0.21875 C 6.738281 -0.800781 5.5625 -1.609375 4.5625 -2.640625 C 3.5625 -3.671875 2.785156 -4.863281 2.234375 -6.21875 C 1.691406 -7.582031 1.421875 -9.039062 1.421875 -10.59375 C 1.421875 -12.144531 1.691406 -13.59375 2.234375 -14.9375 C 2.785156 -16.289062 3.5625 -17.484375 4.5625 -18.515625 C 5.5625 -19.546875 6.738281 -20.351562 8.09375 -20.9375 C 9.457031 -21.519531 10.945312 -21.8125 12.5625 -21.8125 C 14.195312 -21.8125 15.691406 -21.519531 17.046875 -20.9375 C 18.410156 -20.351562 19.59375 -19.546875 20.59375 -18.515625 C 21.601562 -17.484375 22.378906 -16.289062 22.921875 -14.9375 C 23.472656 -13.59375 23.75 -12.144531 23.75 -10.59375 C 23.75 -9.019531 23.472656 -7.554688 22.921875 -6.203125 C 22.378906 -4.859375 21.601562 -3.671875 20.59375 -2.640625 C 19.59375 -1.609375 18.410156 -0.800781 17.046875 -0.21875 C 15.679688 0.351562 14.179688 0.640625 12.546875 0.640625 Z M 12.59375 -4 C 13.78125 -4 14.84375 -4.28125 15.78125 -4.84375 C 16.71875 -5.414062 17.457031 -6.195312 18 -7.1875 C 18.539062 -8.175781 18.8125 -9.3125 18.8125 -10.59375 C 18.8125 -11.863281 18.539062 -12.992188 18 -13.984375 C 17.457031 -14.984375 16.71875 -15.769531 15.78125 -16.34375 C 14.84375 -16.914062 13.78125 -17.203125 12.59375 -17.203125 C 11.40625 -17.203125 10.34375 -16.914062 9.40625 -16.34375 C 8.46875 -15.769531 7.722656 -14.984375 7.171875 -13.984375 C 6.628906 -12.992188 6.359375 -11.863281 6.359375 -10.59375 C 6.359375 -9.3125 6.628906 -8.175781 7.171875 -7.1875 C 7.722656 -6.195312 8.46875 -5.414062 9.40625 -4.84375 C 10.34375 -4.28125 11.40625 -4 12.59375 -4 Z M 12.59375 -4 "/></g></g><g clip-rule="nonzero" clip-path="url(#b3ec2d5047)"><g style="fill:#000000;fill-opacity:1;"><g transform="translate(46.270365, 30.321958)"><path style="stroke:none" d="M 7.90625 7.234375 L 2.921875 7.234375 L 2.921875 -21.171875 L 7.65625 -21.171875 L 7.65625 -17.609375 C 8.425781 -18.890625 9.445312 -19.90625 10.71875 -20.65625 C 12 -21.414062 13.40625 -21.796875 14.9375 -21.796875 C 16.445312 -21.796875 17.828125 -21.503906 19.078125 -20.921875 C 20.335938 -20.335938 21.425781 -19.53125 22.34375 -18.5 C 23.269531 -17.476562 23.984375 -16.289062 24.484375 -14.9375 C 24.992188 -13.59375 25.25 -12.144531 25.25 -10.59375 C 25.25 -9.039062 24.992188 -7.582031 24.484375 -6.21875 C 23.984375 -4.863281 23.269531 -3.671875 22.34375 -2.640625 C 21.414062 -1.609375 20.328125 -0.800781 19.078125 -0.21875 C 17.835938 0.351562 16.476562 0.640625 15 0.640625 C 13.96875 0.640625 12.988281 0.46875 12.0625 0.125 C 11.144531 -0.207031 10.320312 -0.675781 9.59375 -1.28125 C 8.863281 -1.894531 8.269531 -2.609375 7.8125 -3.421875 L 7.90625 -0.96875 Z M 14.09375 -3.953125 C 15.21875 -3.953125 16.25 -4.21875 17.1875 -4.75 C 18.125 -5.289062 18.878906 -6.054688 19.453125 -7.046875 C 20.023438 -8.046875 20.3125 -9.226562 20.3125 -10.59375 C 20.3125 -11.925781 20.03125 -13.082031 19.46875 -14.0625 C 18.90625 -15.050781 18.148438 -15.820312 17.203125 -16.375 C 16.265625 -16.925781 15.21875 -17.203125 14.0625 -17.203125 C 13.195312 -17.203125 12.390625 -17.03125 11.640625 -16.6875 C 10.898438 -16.351562 10.242188 -15.882812 9.671875 -15.28125 C 9.097656 -14.675781 8.648438 -13.972656 8.328125 -13.171875 C 8.003906 -12.378906 7.84375 -11.519531 7.84375 -10.59375 C 7.84375 -9.625 8.007812 -8.734375 8.34375 -7.921875 C 8.675781 -7.117188 9.128906 -6.414062 9.703125 -5.8125 C 10.273438 -5.21875 10.9375 -4.757812 11.6875 -4.4375 C 12.445312 -4.113281 13.25 -3.953125 14.09375 -3.953125 Z M 14.09375 -3.953125 "/></g></g></g></g></g></g></g></g></svg>