<svg xmlns="http://www.w3.org/2000/svg" xmlns:xlink="http://www.w3.org/1999/xlink" width="500" zoomAndPan="magnify" viewBox="0 0 375 374.999991" height="500" preserveAspectRatio="xMidYMid meet" version="1.2"><defs><clipPath id="ed5de35efd"><path d="M 109.484375 109.484375 L 265.484375 109.484375 L 265.484375 265.484375 L 109.484375 265.484375 Z M 109.484375 109.484375 "/></clipPath><clipPath id="62290f3f5e"><path d="M 0.507812 0.507812 L 156.484375 0.507812 L 156.484375 156.484375 L 0.507812 156.484375 Z M 0.507812 0.507812 "/></clipPath><clipPath id="fc211910be"><rect x="0" width="157" y="0" height="157"/></clipPath><clipPath id="650657f57a"><path d="M 209.847656 209.847656 L 265.347656 209.847656 L 265.347656 265.347656 L 209.847656 265.347656 Z M 209.847656 209.847656 "/></clipPath></defs><g id="f1be127680"><rect x="0" width="375" y="0" height="374.999991" style="fill:#ffffff;fill-opacity:1;stroke:none;"/><rect x="0" width="375" y="0" height="374.999991" style="fill:#e2ef34;fill-opacity:1;stroke:none;"/><g clip-rule="nonzero" clip-path="url(#ed5de35efd)"><g transform="matrix(1,0,0,1,109,109)"><g clip-path="url(#fc211910be)"><g clip-rule="nonzero" clip-path="url(#62290f3f5e)"><path style=" stroke:none;fill-rule:nonzero;fill:#000000;fill-opacity:1;" d="M 0.484375 156.507812 C 86.652344 156.507812 156.507812 86.652344 156.507812 0.484375 L 0.484375 0.484375 Z M 0.484375 156.507812 "/></g></g></g></g><g clip-rule="nonzero" clip-path="url(#650657f57a)"><path style=" stroke:none;fill-rule:nonzero;fill:#000000;fill-opacity:1;" d="M 265.511719 209.847656 C 234.769531 209.847656 209.847656 234.769531 209.847656 265.511719 L 265.511719 265.511719 Z M 265.511719 209.847656 "/></g></g></svg>